<?xml version="1.0" encoding="UTF-8" standalone="no"?>
<!DOCTYPE svg PUBLIC "-//W3C//DTD SVG 1.1//EN"
 "http://www.w3.org/Graphics/SVG/1.1/DTD/svg11.dtd">
<!-- Generated by graphviz version 2.43.0 (0)
 -->
<!-- Title: G Pages: 1 -->
<svg width="1908pt" height="346pt"
 viewBox="0.00 0.00 1908.00 346.00" xmlns="http://www.w3.org/2000/svg" xmlns:xlink="http://www.w3.org/1999/xlink">
<g id="graph0" class="graph" transform="scale(1 1) rotate(0) translate(4 342)">
<title>G</title>
<polygon fill="white" stroke="transparent" points="-4,4 -4,-342 1904,-342 1904,4 -4,4"/>
<g id="clust1" class="cluster">
<title>cluster_module.activate_google_apis</title>
<polygon fill="none" stroke="black" points="8,-201 8,-330 889,-330 889,-201 8,-201"/>
<text text-anchor="middle" x="448.5" y="-314.8" font-family="sans-serif" font-size="14.00">module.activate_google_apis</text>
</g>
<g id="clust2" class="cluster">
<title>cluster_module.vpc.module.firewall_rules</title>
<polygon fill="none" stroke="black" points="1245,-91 1245,-220 1596,-220 1596,-91 1245,-91"/>
<text text-anchor="middle" x="1420.5" y="-204.8" font-family="sans-serif" font-size="14.00">module.vpc.module.firewall_rules</text>
</g>
<g id="clust3" class="cluster">
<title>cluster_module.vpc.module.routes</title>
<polygon fill="none" stroke="black" points="1662,-8 1662,-83 1892,-83 1892,-8 1662,-8"/>
<text text-anchor="middle" x="1777" y="-67.8" font-family="sans-serif" font-size="14.00">module.vpc.module.routes</text>
</g>
<g id="clust4" class="cluster">
<title>cluster_module.vpc.module.subnets</title>
<polygon fill="none" stroke="black" points="1260,-8 1260,-83 1581,-83 1581,-8 1260,-8"/>
<text text-anchor="middle" x="1420.5" y="-67.8" font-family="sans-serif" font-size="14.00">module.vpc.module.subnets</text>
</g>
<g id="clust5" class="cluster">
<title>cluster_module.vpc.module.vpc</title>
<polygon fill="none" stroke="black" points="909,-228 909,-303 1642,-303 1642,-228 909,-228"/>
<text text-anchor="middle" x="1275.5" y="-287.8" font-family="sans-serif" font-size="14.00">module.vpc.module.vpc</text>
</g>
<!-- module.activate_google_apis.data.google_compute_default_service_account.default -->
<g id="node1" class="node">
<title>module.activate_google_apis.data.google_compute_default_service_account.default</title>
<polygon fill="none" stroke="black" points="416.5,-245 24.5,-245 24.5,-209 416.5,-209 416.5,-245"/>
<text text-anchor="middle" x="220.5" y="-223.3" font-family="sans-serif" font-size="14.00">data.google_compute_default_service_account.default</text>
</g>
<!-- module.activate_google_apis.google_project_iam_member.project_service_identity_roles -->
<g id="node2" class="node">
<title>module.activate_google_apis.google_project_iam_member.project_service_identity_roles</title>
<polygon fill="none" stroke="black" points="881,-299 461,-299 461,-263 881,-263 881,-299"/>
<text text-anchor="middle" x="671" y="-277.3" font-family="sans-serif" font-size="14.00">google_project_iam_member.project_service_identity_roles</text>
</g>
<!-- module.activate_google_apis.google_project_iam_member.project_service_identity_roles&#45;&gt;module.activate_google_apis.data.google_compute_default_service_account.default -->
<g id="edge1" class="edge">
<title>module.activate_google_apis.google_project_iam_member.project_service_identity_roles&#45;&gt;module.activate_google_apis.data.google_compute_default_service_account.default</title>
<path fill="none" stroke="black" d="M520.34,-262.98C475.7,-257.61 426.61,-251.7 381.34,-246.25"/>
<polygon fill="black" stroke="black" points="381.49,-242.74 371.14,-245.02 380.65,-249.69 381.49,-242.74"/>
</g>
<!-- module.activate_google_apis.google_project_service_identity.project_service_identities -->
<g id="node4" class="node">
<title>module.activate_google_apis.google_project_service_identity.project_service_identities</title>
<polygon fill="none" stroke="black" points="425,-299 16,-299 16,-263 425,-263 425,-299"/>
<text text-anchor="middle" x="220.5" y="-277.3" font-family="sans-serif" font-size="14.00">google_project_service_identity.project_service_identities</text>
</g>
<!-- module.activate_google_apis.google_project_iam_member.project_service_identity_roles&#45;&gt;module.activate_google_apis.google_project_service_identity.project_service_identities -->
<g id="edge2" class="edge">
<title>module.activate_google_apis.google_project_iam_member.project_service_identity_roles&#45;&gt;module.activate_google_apis.google_project_service_identity.project_service_identities</title>
<path fill="none" stroke="black" d="M460.85,-281C452.32,-281 443.75,-281 435.21,-281"/>
<polygon fill="black" stroke="black" points="435.19,-277.5 425.19,-281 435.19,-284.5 435.19,-277.5"/>
</g>
<!-- module.activate_google_apis.google_project_service.project_services -->
<g id="node3" class="node">
<title>module.activate_google_apis.google_project_service.project_services</title>
<polygon fill="none" stroke="black" points="815.5,-245 526.5,-245 526.5,-209 815.5,-209 815.5,-245"/>
<text text-anchor="middle" x="671" y="-223.3" font-family="sans-serif" font-size="14.00">google_project_service.project_services</text>
</g>
<!-- module.vpc.module.firewall_rules.google_compute_firewall.rules -->
<g id="node5" class="node">
<title>module.vpc.module.firewall_rules.google_compute_firewall.rules</title>
<polygon fill="none" stroke="black" points="1533.5,-189 1307.5,-189 1307.5,-153 1533.5,-153 1533.5,-189"/>
<text text-anchor="middle" x="1420.5" y="-167.3" font-family="sans-serif" font-size="14.00">google_compute_firewall.rules</text>
</g>
<!-- module.vpc.module.vpc.google_compute_network.network -->
<g id="node9" class="node">
<title>module.vpc.module.vpc.google_compute_network.network</title>
<polygon fill="none" stroke="black" points="1171,-272 917,-272 917,-236 1171,-236 1171,-272"/>
<text text-anchor="middle" x="1044" y="-250.3" font-family="sans-serif" font-size="14.00">google_compute_network.network</text>
</g>
<!-- module.vpc.module.firewall_rules.google_compute_firewall.rules&#45;&gt;module.vpc.module.vpc.google_compute_network.network -->
<g id="edge3" class="edge">
<title>module.vpc.module.firewall_rules.google_compute_firewall.rules&#45;&gt;module.vpc.module.vpc.google_compute_network.network</title>
<path fill="none" stroke="black" d="M1338.24,-189.01C1278.84,-202.17 1198.22,-220.04 1136.54,-233.71"/>
<polygon fill="black" stroke="black" points="1135.43,-230.37 1126.43,-235.95 1136.95,-237.21 1135.43,-230.37"/>
</g>
<!-- module.vpc.module.firewall_rules.google_compute_firewall.rules_ingress_egress -->
<g id="node6" class="node">
<title>module.vpc.module.firewall_rules.google_compute_firewall.rules_ingress_egress</title>
<polygon fill="none" stroke="black" points="1588,-135 1253,-135 1253,-99 1588,-99 1588,-135"/>
<text text-anchor="middle" x="1420.5" y="-113.3" font-family="sans-serif" font-size="14.00">google_compute_firewall.rules_ingress_egress</text>
</g>
<!-- module.vpc.module.firewall_rules.google_compute_firewall.rules_ingress_egress&#45;&gt;module.vpc.module.vpc.google_compute_network.network -->
<g id="edge4" class="edge">
<title>module.vpc.module.firewall_rules.google_compute_firewall.rules_ingress_egress&#45;&gt;module.vpc.module.vpc.google_compute_network.network</title>
<path fill="none" stroke="black" d="M1252.91,-130.48C1237.15,-134.04 1221.61,-138.48 1207,-144 1154.75,-163.75 1102.83,-203.47 1072.35,-229.38"/>
<polygon fill="black" stroke="black" points="1069.99,-226.79 1064.7,-235.97 1074.56,-232.09 1069.99,-226.79"/>
</g>
<!-- module.vpc.module.routes.google_compute_route.route -->
<g id="node7" class="node">
<title>module.vpc.module.routes.google_compute_route.route</title>
<polygon fill="none" stroke="black" points="1884,-52 1670,-52 1670,-16 1884,-16 1884,-52"/>
<text text-anchor="middle" x="1777" y="-30.3" font-family="sans-serif" font-size="14.00">google_compute_route.route</text>
</g>
<!-- module.vpc.module.subnets.google_compute_subnetwork.subnetwork -->
<g id="node8" class="node">
<title>module.vpc.module.subnets.google_compute_subnetwork.subnetwork</title>
<polygon fill="none" stroke="black" points="1573,-52 1268,-52 1268,-16 1573,-16 1573,-52"/>
<text text-anchor="middle" x="1420.5" y="-30.3" font-family="sans-serif" font-size="14.00">google_compute_subnetwork.subnetwork</text>
</g>
<!-- module.vpc.module.routes.google_compute_route.route&#45;&gt;module.vpc.module.subnets.google_compute_subnetwork.subnetwork -->
<g id="edge5" class="edge">
<title>module.vpc.module.routes.google_compute_route.route&#45;&gt;module.vpc.module.subnets.google_compute_subnetwork.subnetwork</title>
<path fill="none" stroke="black" d="M1669.64,-34C1642.46,-34 1612.61,-34 1583.33,-34"/>
<polygon fill="black" stroke="black" points="1583,-30.5 1573,-34 1583,-37.5 1583,-30.5"/>
</g>
<!-- module.vpc.module.subnets.google_compute_subnetwork.subnetwork&#45;&gt;module.vpc.module.vpc.google_compute_network.network -->
<g id="edge6" class="edge">
<title>module.vpc.module.subnets.google_compute_subnetwork.subnetwork&#45;&gt;module.vpc.module.vpc.google_compute_network.network</title>
<path fill="none" stroke="black" d="M1298.1,-52.04C1267.07,-59.88 1234.68,-71.06 1207,-87 1144.3,-123.11 1090.02,-190.46 1063.08,-227.64"/>
<polygon fill="black" stroke="black" points="1060.1,-225.8 1057.14,-235.97 1065.8,-229.86 1060.1,-225.8"/>
</g>
<!-- module.vpc.module.vpc.google_compute_network.network&#45;&gt;module.activate_google_apis.google_project_iam_member.project_service_identity_roles -->
<g id="edge7" class="edge">
<title>module.vpc.module.vpc.google_compute_network.network&#45;&gt;module.activate_google_apis.google_project_iam_member.project_service_identity_roles</title>
<path fill="none" stroke="black" d="M916.88,-263.18C908.5,-263.79 899.94,-264.41 891.28,-265.04"/>
<polygon fill="black" stroke="black" points="890.79,-261.57 881.07,-265.78 891.29,-268.55 890.79,-261.57"/>
</g>
<!-- module.vpc.module.vpc.google_compute_network.network&#45;&gt;module.activate_google_apis.google_project_service.project_services -->
<g id="edge8" class="edge">
<title>module.vpc.module.vpc.google_compute_network.network&#45;&gt;module.activate_google_apis.google_project_service.project_services</title>
<path fill="none" stroke="black" d="M916.88,-244.82C887.63,-242.69 856.17,-240.4 825.87,-238.2"/>
<polygon fill="black" stroke="black" points="825.88,-234.69 815.65,-237.45 825.37,-241.67 825.88,-234.69"/>
</g>
<!-- module.vpc.module.vpc.google_compute_shared_vpc_host_project.shared_vpc_host -->
<g id="node10" class="node">
<title>module.vpc.module.vpc.google_compute_shared_vpc_host_project.shared_vpc_host</title>
<polygon fill="none" stroke="black" points="1634,-272 1207,-272 1207,-236 1634,-236 1634,-272"/>
<text text-anchor="middle" x="1420.5" y="-250.3" font-family="sans-serif" font-size="14.00">google_compute_shared_vpc_host_project.shared_vpc_host</text>
</g>
<!-- module.vpc.module.vpc.google_compute_shared_vpc_host_project.shared_vpc_host&#45;&gt;module.vpc.module.vpc.google_compute_network.network -->
<g id="edge9" class="edge">
<title>module.vpc.module.vpc.google_compute_shared_vpc_host_project.shared_vpc_host&#45;&gt;module.vpc.module.vpc.google_compute_network.network</title>
<path fill="none" stroke="black" d="M1206.81,-254C1198.25,-254 1189.77,-254 1181.43,-254"/>
<polygon fill="black" stroke="black" points="1181.33,-250.5 1171.33,-254 1181.33,-257.5 1181.33,-250.5"/>
</g>
</g>
</svg>
