<?xml version="1.0" encoding="UTF-8" standalone="no"?>
<!DOCTYPE svg PUBLIC "-//W3C//DTD SVG 1.1//EN"
 "http://www.w3.org/Graphics/SVG/1.1/DTD/svg11.dtd">
<!-- Generated by graphviz version 2.43.0 (0)
 -->
<!-- Title: G Pages: 1 -->
<svg width="2105pt" height="1063pt"
 viewBox="0.00 0.00 2105.00 1063.00" xmlns="http://www.w3.org/2000/svg" xmlns:xlink="http://www.w3.org/1999/xlink">
<g id="graph0" class="graph" transform="scale(1 1) rotate(0) translate(4 1059)">
<title>G</title>
<polygon fill="white" stroke="transparent" points="-4,4 -4,-1059 2101,-1059 2101,4 -4,4"/>
<g id="clust1" class="cluster">
<title>cluster_module.activate_google_apis</title>
<polygon fill="none" stroke="black" points="8,-357 8,-486 889,-486 889,-357 8,-357"/>
<text text-anchor="middle" x="448.5" y="-470.8" font-family="sans-serif" font-size="14.00">module.activate_google_apis</text>
</g>
<g id="clust2" class="cluster">
<title>cluster_module.bigquery</title>
<polygon fill="none" stroke="black" points="946,-756 946,-1047 1641,-1047 1641,-756 946,-756"/>
<text text-anchor="middle" x="1293.5" y="-1031.8" font-family="sans-serif" font-size="14.00">module.bigquery</text>
</g>
<g id="clust3" class="cluster">
<title>cluster_module.service_accounts</title>
<polygon fill="none" stroke="black" points="909,-403 909,-748 1687,-748 1687,-403 909,-403"/>
<text text-anchor="middle" x="1298" y="-732.8" font-family="sans-serif" font-size="14.00">module.service_accounts</text>
</g>
<g id="clust4" class="cluster">
<title>cluster_module.simple&#45;composer&#45;environment</title>
<polygon fill="none" stroke="black" points="959,-311 959,-386 2089,-386 2089,-311 959,-311"/>
<text text-anchor="middle" x="1524" y="-370.8" font-family="sans-serif" font-size="14.00">module.simple&#45;composer&#45;environment</text>
</g>
<g id="clust5" class="cluster">
<title>cluster_module.vpc.module.firewall_rules</title>
<polygon fill="none" stroke="black" points="1306.5,-91 1306.5,-220 1657.5,-220 1657.5,-91 1306.5,-91"/>
<text text-anchor="middle" x="1482" y="-204.8" font-family="sans-serif" font-size="14.00">module.vpc.module.firewall_rules</text>
</g>
<g id="clust6" class="cluster">
<title>cluster_module.vpc.module.routes</title>
<polygon fill="none" stroke="black" points="1797,-8 1797,-83 2027,-83 2027,-8 1797,-8"/>
<text text-anchor="middle" x="1912" y="-67.8" font-family="sans-serif" font-size="14.00">module.vpc.module.routes</text>
</g>
<g id="clust7" class="cluster">
<title>cluster_module.vpc.module.subnets</title>
<polygon fill="none" stroke="black" points="1321.5,-8 1321.5,-83 1642.5,-83 1642.5,-8 1321.5,-8"/>
<text text-anchor="middle" x="1482" y="-67.8" font-family="sans-serif" font-size="14.00">module.vpc.module.subnets</text>
</g>
<g id="clust8" class="cluster">
<title>cluster_module.vpc.module.vpc</title>
<polygon fill="none" stroke="black" points="934,-228 934,-303 1703.5,-303 1703.5,-228 934,-228"/>
<text text-anchor="middle" x="1318.75" y="-287.8" font-family="sans-serif" font-size="14.00">module.vpc.module.vpc</text>
</g>
<!-- module.activate_google_apis.data.google_compute_default_service_account.default -->
<g id="node1" class="node">
<title>module.activate_google_apis.data.google_compute_default_service_account.default</title>
<polygon fill="none" stroke="black" points="416.5,-401 24.5,-401 24.5,-365 416.5,-365 416.5,-401"/>
<text text-anchor="middle" x="220.5" y="-379.3" font-family="sans-serif" font-size="14.00">data.google_compute_default_service_account.default</text>
</g>
<!-- module.activate_google_apis.google_project_iam_member.project_service_identity_roles -->
<g id="node2" class="node">
<title>module.activate_google_apis.google_project_iam_member.project_service_identity_roles</title>
<polygon fill="none" stroke="black" points="881,-455 461,-455 461,-419 881,-419 881,-455"/>
<text text-anchor="middle" x="671" y="-433.3" font-family="sans-serif" font-size="14.00">google_project_iam_member.project_service_identity_roles</text>
</g>
<!-- module.activate_google_apis.google_project_iam_member.project_service_identity_roles&#45;&gt;module.activate_google_apis.data.google_compute_default_service_account.default -->
<g id="edge1" class="edge">
<title>module.activate_google_apis.google_project_iam_member.project_service_identity_roles&#45;&gt;module.activate_google_apis.data.google_compute_default_service_account.default</title>
<path fill="none" stroke="black" d="M520.34,-418.98C475.7,-413.61 426.61,-407.7 381.34,-402.25"/>
<polygon fill="black" stroke="black" points="381.49,-398.74 371.14,-401.02 380.65,-405.69 381.49,-398.74"/>
</g>
<!-- module.activate_google_apis.google_project_service_identity.project_service_identities -->
<g id="node4" class="node">
<title>module.activate_google_apis.google_project_service_identity.project_service_identities</title>
<polygon fill="none" stroke="black" points="425,-455 16,-455 16,-419 425,-419 425,-455"/>
<text text-anchor="middle" x="220.5" y="-433.3" font-family="sans-serif" font-size="14.00">google_project_service_identity.project_service_identities</text>
</g>
<!-- module.activate_google_apis.google_project_iam_member.project_service_identity_roles&#45;&gt;module.activate_google_apis.google_project_service_identity.project_service_identities -->
<g id="edge2" class="edge">
<title>module.activate_google_apis.google_project_iam_member.project_service_identity_roles&#45;&gt;module.activate_google_apis.google_project_service_identity.project_service_identities</title>
<path fill="none" stroke="black" d="M460.85,-437C452.32,-437 443.75,-437 435.21,-437"/>
<polygon fill="black" stroke="black" points="435.19,-433.5 425.19,-437 435.19,-440.5 435.19,-433.5"/>
</g>
<!-- module.activate_google_apis.google_project_service.project_services -->
<g id="node3" class="node">
<title>module.activate_google_apis.google_project_service.project_services</title>
<polygon fill="none" stroke="black" points="815.5,-401 526.5,-401 526.5,-365 815.5,-365 815.5,-401"/>
<text text-anchor="middle" x="671" y="-379.3" font-family="sans-serif" font-size="14.00">google_project_service.project_services</text>
</g>
<!-- module.bigquery.google_bigquery_dataset.main -->
<g id="node5" class="node">
<title>module.bigquery.google_bigquery_dataset.main</title>
<polygon fill="none" stroke="black" points="1184,-854 954,-854 954,-818 1184,-818 1184,-854"/>
<text text-anchor="middle" x="1069" y="-832.3" font-family="sans-serif" font-size="14.00">google_bigquery_dataset.main</text>
</g>
<!-- module.bigquery.google_bigquery_dataset.main&#45;&gt;module.activate_google_apis.google_project_iam_member.project_service_identity_roles -->
<g id="edge3" class="edge">
<title>module.bigquery.google_bigquery_dataset.main&#45;&gt;module.activate_google_apis.google_project_iam_member.project_service_identity_roles</title>
<path fill="none" stroke="black" d="M1021.56,-817.97C987.97,-803.46 942.74,-780.76 909,-752 805.64,-663.89 720.11,-523.09 686.88,-464.24"/>
<polygon fill="black" stroke="black" points="689.75,-462.22 681.82,-455.2 683.64,-465.63 689.75,-462.22"/>
</g>
<!-- module.bigquery.google_bigquery_dataset.main&#45;&gt;module.activate_google_apis.google_project_service.project_services -->
<g id="edge4" class="edge">
<title>module.bigquery.google_bigquery_dataset.main&#45;&gt;module.activate_google_apis.google_project_service.project_services</title>
<path fill="none" stroke="black" d="M1001.07,-817.85C967.6,-805.12 929.86,-784.43 909,-752 867.82,-687.97 941.04,-465.56 889,-410 872.06,-391.92 849.66,-381.3 825.68,-375.52"/>
<polygon fill="black" stroke="black" points="826.2,-372.05 815.69,-373.39 824.74,-378.9 826.2,-372.05"/>
</g>
<!-- module.bigquery.google_bigquery_routine.routine -->
<g id="node6" class="node">
<title>module.bigquery.google_bigquery_routine.routine</title>
<polygon fill="none" stroke="black" points="1602.5,-800 1361.5,-800 1361.5,-764 1602.5,-764 1602.5,-800"/>
<text text-anchor="middle" x="1482" y="-778.3" font-family="sans-serif" font-size="14.00">google_bigquery_routine.routine</text>
</g>
<!-- module.bigquery.google_bigquery_routine.routine&#45;&gt;module.bigquery.google_bigquery_dataset.main -->
<g id="edge5" class="edge">
<title>module.bigquery.google_bigquery_routine.routine&#45;&gt;module.bigquery.google_bigquery_dataset.main</title>
<path fill="none" stroke="black" d="M1361.49,-795.88C1327.69,-799.95 1290.88,-804.51 1257,-809 1236.65,-811.7 1215.07,-814.69 1194.08,-817.67"/>
<polygon fill="black" stroke="black" points="1193.57,-814.21 1184.16,-819.08 1194.56,-821.14 1193.57,-814.21"/>
</g>
<!-- module.bigquery.google_bigquery_table.external_table -->
<g id="node7" class="node">
<title>module.bigquery.google_bigquery_table.external_table</title>
<polygon fill="none" stroke="black" points="1619.5,-1016 1344.5,-1016 1344.5,-980 1619.5,-980 1619.5,-1016"/>
<text text-anchor="middle" x="1482" y="-994.3" font-family="sans-serif" font-size="14.00">google_bigquery_table.external_table</text>
</g>
<!-- module.bigquery.google_bigquery_table.external_table&#45;&gt;module.bigquery.google_bigquery_dataset.main -->
<g id="edge6" class="edge">
<title>module.bigquery.google_bigquery_table.external_table&#45;&gt;module.bigquery.google_bigquery_dataset.main</title>
<path fill="none" stroke="black" d="M1344.45,-992.63C1314.92,-988.44 1284.36,-981.7 1257,-971 1192.44,-945.76 1129.68,-892.92 1095.81,-861.35"/>
<polygon fill="black" stroke="black" points="1097.91,-858.52 1088.23,-854.19 1093.1,-863.61 1097.91,-858.52"/>
</g>
<!-- module.bigquery.google_bigquery_table.main -->
<g id="node8" class="node">
<title>module.bigquery.google_bigquery_table.main</title>
<polygon fill="none" stroke="black" points="1588,-962 1376,-962 1376,-926 1588,-926 1588,-962"/>
<text text-anchor="middle" x="1482" y="-940.3" font-family="sans-serif" font-size="14.00">google_bigquery_table.main</text>
</g>
<!-- module.bigquery.google_bigquery_table.main&#45;&gt;module.bigquery.google_bigquery_dataset.main -->
<g id="edge7" class="edge">
<title>module.bigquery.google_bigquery_table.main&#45;&gt;module.bigquery.google_bigquery_dataset.main</title>
<path fill="none" stroke="black" d="M1375.8,-937.63C1337.9,-933.69 1295.09,-927.31 1257,-917 1205.53,-903.07 1149.84,-877.46 1112.75,-858.76"/>
<polygon fill="black" stroke="black" points="1114.23,-855.59 1103.73,-854.16 1111.05,-861.82 1114.23,-855.59"/>
</g>
<!-- module.bigquery.google_bigquery_table.materialized_view -->
<g id="node9" class="node">
<title>module.bigquery.google_bigquery_table.materialized_view</title>
<polygon fill="none" stroke="black" points="1633,-908 1331,-908 1331,-872 1633,-872 1633,-908"/>
<text text-anchor="middle" x="1482" y="-886.3" font-family="sans-serif" font-size="14.00">google_bigquery_table.materialized_view</text>
</g>
<!-- module.bigquery.google_bigquery_table.materialized_view&#45;&gt;module.bigquery.google_bigquery_dataset.main -->
<g id="edge8" class="edge">
<title>module.bigquery.google_bigquery_table.materialized_view&#45;&gt;module.bigquery.google_bigquery_dataset.main</title>
<path fill="none" stroke="black" d="M1330.93,-872.4C1306.22,-869.36 1280.88,-866.16 1257,-863 1236.65,-860.3 1215.07,-857.31 1194.08,-854.33"/>
<polygon fill="black" stroke="black" points="1194.56,-850.86 1184.16,-852.92 1193.57,-857.79 1194.56,-850.86"/>
</g>
<!-- module.bigquery.google_bigquery_table.view -->
<g id="node10" class="node">
<title>module.bigquery.google_bigquery_table.view</title>
<polygon fill="none" stroke="black" points="1586.5,-854 1377.5,-854 1377.5,-818 1586.5,-818 1586.5,-854"/>
<text text-anchor="middle" x="1482" y="-832.3" font-family="sans-serif" font-size="14.00">google_bigquery_table.view</text>
</g>
<!-- module.bigquery.google_bigquery_table.view&#45;&gt;module.bigquery.google_bigquery_dataset.main -->
<g id="edge9" class="edge">
<title>module.bigquery.google_bigquery_table.view&#45;&gt;module.bigquery.google_bigquery_dataset.main</title>
<path fill="none" stroke="black" d="M1377.29,-836C1321.65,-836 1252.69,-836 1194.21,-836"/>
<polygon fill="black" stroke="black" points="1194.17,-832.5 1184.17,-836 1194.17,-839.5 1194.17,-832.5"/>
</g>
<!-- module.service_accounts.google_billing_account_iam_member.billing_user -->
<g id="node11" class="node">
<title>module.service_accounts.google_billing_account_iam_member.billing_user</title>
<polygon fill="none" stroke="black" points="1658.5,-501 1305.5,-501 1305.5,-465 1658.5,-465 1658.5,-501"/>
<text text-anchor="middle" x="1482" y="-479.3" font-family="sans-serif" font-size="14.00">google_billing_account_iam_member.billing_user</text>
</g>
<!-- module.service_accounts.google_service_account.service_accounts -->
<g id="node16" class="node">
<title>module.service_accounts.google_service_account.service_accounts</title>
<polygon fill="none" stroke="black" points="1221,-501 917,-501 917,-465 1221,-465 1221,-501"/>
<text text-anchor="middle" x="1069" y="-479.3" font-family="sans-serif" font-size="14.00">google_service_account.service_accounts</text>
</g>
<!-- module.service_accounts.google_billing_account_iam_member.billing_user&#45;&gt;module.service_accounts.google_service_account.service_accounts -->
<g id="edge10" class="edge">
<title>module.service_accounts.google_billing_account_iam_member.billing_user&#45;&gt;module.service_accounts.google_service_account.service_accounts</title>
<path fill="none" stroke="black" d="M1305.21,-483C1280.58,-483 1255.38,-483 1231.05,-483"/>
<polygon fill="black" stroke="black" points="1231.04,-479.5 1221.04,-483 1231.04,-486.5 1231.04,-479.5"/>
</g>
<!-- module.service_accounts.google_organization_iam_member.billing_user -->
<g id="node12" class="node">
<title>module.service_accounts.google_organization_iam_member.billing_user</title>
<polygon fill="none" stroke="black" points="1649.5,-447 1314.5,-447 1314.5,-411 1649.5,-411 1649.5,-447"/>
<text text-anchor="middle" x="1482" y="-425.3" font-family="sans-serif" font-size="14.00">google_organization_iam_member.billing_user</text>
</g>
<!-- module.service_accounts.google_organization_iam_member.billing_user&#45;&gt;module.service_accounts.google_service_account.service_accounts -->
<g id="edge11" class="edge">
<title>module.service_accounts.google_organization_iam_member.billing_user&#45;&gt;module.service_accounts.google_service_account.service_accounts</title>
<path fill="none" stroke="black" d="M1327.61,-447.01C1303.95,-449.92 1279.81,-452.98 1257,-456 1239.15,-458.36 1220.36,-460.96 1201.85,-463.57"/>
<polygon fill="black" stroke="black" points="1201.32,-460.11 1191.91,-464.98 1202.3,-467.04 1201.32,-460.11"/>
</g>
<!-- module.service_accounts.google_organization_iam_member.organization_viewer -->
<g id="node13" class="node">
<title>module.service_accounts.google_organization_iam_member.organization_viewer</title>
<polygon fill="none" stroke="black" points="1679,-717 1285,-717 1285,-681 1679,-681 1679,-717"/>
<text text-anchor="middle" x="1482" y="-695.3" font-family="sans-serif" font-size="14.00">google_organization_iam_member.organization_viewer</text>
</g>
<!-- module.service_accounts.google_organization_iam_member.organization_viewer&#45;&gt;module.service_accounts.google_service_account.service_accounts -->
<g id="edge12" class="edge">
<title>module.service_accounts.google_organization_iam_member.organization_viewer&#45;&gt;module.service_accounts.google_service_account.service_accounts</title>
<path fill="none" stroke="black" d="M1284.76,-683.34C1275.19,-680.1 1265.88,-676.35 1257,-672 1180.17,-634.38 1116.58,-552.19 1087.32,-509.66"/>
<polygon fill="black" stroke="black" points="1090.11,-507.54 1081.61,-501.22 1084.32,-511.47 1090.11,-507.54"/>
</g>
<!-- module.service_accounts.google_organization_iam_member.xpn_admin -->
<g id="node14" class="node">
<title>module.service_accounts.google_organization_iam_member.xpn_admin</title>
<polygon fill="none" stroke="black" points="1648,-663 1316,-663 1316,-627 1648,-627 1648,-663"/>
<text text-anchor="middle" x="1482" y="-641.3" font-family="sans-serif" font-size="14.00">google_organization_iam_member.xpn_admin</text>
</g>
<!-- module.service_accounts.google_organization_iam_member.xpn_admin&#45;&gt;module.service_accounts.google_service_account.service_accounts -->
<g id="edge13" class="edge">
<title>module.service_accounts.google_organization_iam_member.xpn_admin&#45;&gt;module.service_accounts.google_service_account.service_accounts</title>
<path fill="none" stroke="black" d="M1315.92,-634.78C1295.69,-630.72 1275.61,-625.27 1257,-618 1192.44,-592.76 1129.68,-539.92 1095.81,-508.35"/>
<polygon fill="black" stroke="black" points="1097.91,-505.52 1088.23,-501.19 1093.1,-510.61 1097.91,-505.52"/>
</g>
<!-- module.service_accounts.google_project_iam_member.project&#45;roles -->
<g id="node15" class="node">
<title>module.service_accounts.google_project_iam_member.project&#45;roles</title>
<polygon fill="none" stroke="black" points="1633.5,-609 1330.5,-609 1330.5,-573 1633.5,-573 1633.5,-609"/>
<text text-anchor="middle" x="1482" y="-587.3" font-family="sans-serif" font-size="14.00">google_project_iam_member.project&#45;roles</text>
</g>
<!-- module.service_accounts.google_project_iam_member.project&#45;roles&#45;&gt;module.service_accounts.google_service_account.service_accounts -->
<g id="edge14" class="edge">
<title>module.service_accounts.google_project_iam_member.project&#45;roles&#45;&gt;module.service_accounts.google_service_account.service_accounts</title>
<path fill="none" stroke="black" d="M1330.44,-578.92C1305.67,-575.2 1280.44,-570.35 1257,-564 1205.53,-550.07 1149.84,-524.46 1112.75,-505.76"/>
<polygon fill="black" stroke="black" points="1114.23,-502.59 1103.73,-501.16 1111.05,-508.82 1114.23,-502.59"/>
</g>
<!-- module.service_accounts.google_service_account.service_accounts&#45;&gt;module.activate_google_apis.google_project_iam_member.project_service_identity_roles -->
<g id="edge15" class="edge">
<title>module.service_accounts.google_service_account.service_accounts&#45;&gt;module.activate_google_apis.google_project_iam_member.project_service_identity_roles</title>
<path fill="none" stroke="black" d="M916.88,-465.45C890.82,-462.42 863.62,-459.26 837.22,-456.19"/>
<polygon fill="black" stroke="black" points="837.48,-452.7 827.14,-455.02 836.67,-459.65 837.48,-452.7"/>
</g>
<!-- module.service_accounts.google_service_account.service_accounts&#45;&gt;module.activate_google_apis.google_project_service.project_services -->
<g id="edge16" class="edge">
<title>module.service_accounts.google_service_account.service_accounts&#45;&gt;module.activate_google_apis.google_project_service.project_services</title>
<path fill="none" stroke="black" d="M1031.94,-464.99C996.47,-448.07 940.31,-423.4 889,-410 868.79,-404.72 847.23,-400.46 825.85,-397.03"/>
<polygon fill="black" stroke="black" points="826.13,-393.53 815.71,-395.46 825.06,-400.45 826.13,-393.53"/>
</g>
<!-- module.service_accounts.google_service_account_key.keys -->
<g id="node17" class="node">
<title>module.service_accounts.google_service_account_key.keys</title>
<polygon fill="none" stroke="black" points="1604.5,-555 1359.5,-555 1359.5,-519 1604.5,-519 1604.5,-555"/>
<text text-anchor="middle" x="1482" y="-533.3" font-family="sans-serif" font-size="14.00">google_service_account_key.keys</text>
</g>
<!-- module.service_accounts.google_service_account_key.keys&#45;&gt;module.service_accounts.google_service_account.service_accounts -->
<g id="edge17" class="edge">
<title>module.service_accounts.google_service_account_key.keys&#45;&gt;module.service_accounts.google_service_account.service_accounts</title>
<path fill="none" stroke="black" d="M1359.45,-522.87C1326.21,-518.87 1290.2,-514.4 1257,-510 1239.15,-507.64 1220.36,-505.04 1201.85,-502.43"/>
<polygon fill="black" stroke="black" points="1202.3,-498.96 1191.91,-501.02 1201.32,-505.89 1202.3,-498.96"/>
</g>
<!-- module.simple&#45;composer&#45;environment.data.google_project.project -->
<g id="node18" class="node">
<title>module.simple&#45;composer&#45;environment.data.google_project.project</title>
<polygon fill="none" stroke="black" points="1171,-355 967,-355 967,-319 1171,-319 1171,-355"/>
<text text-anchor="middle" x="1069" y="-333.3" font-family="sans-serif" font-size="14.00">data.google_project.project</text>
</g>
<!-- module.simple&#45;composer&#45;environment.data.google_project.project&#45;&gt;module.activate_google_apis.google_project_iam_member.project_service_identity_roles -->
<g id="edge18" class="edge">
<title>module.simple&#45;composer&#45;environment.data.google_project.project&#45;&gt;module.activate_google_apis.google_project_iam_member.project_service_identity_roles</title>
<path fill="none" stroke="black" d="M1016.8,-355.02C985.28,-366.59 944.29,-382.5 909,-399 899.81,-403.3 898.65,-406.87 889,-410 881.64,-412.39 874.07,-414.56 866.38,-416.55"/>
<polygon fill="black" stroke="black" points="865.44,-413.17 856.57,-418.97 867.12,-419.97 865.44,-413.17"/>
</g>
<!-- module.simple&#45;composer&#45;environment.data.google_project.project&#45;&gt;module.activate_google_apis.google_project_service.project_services -->
<g id="edge19" class="edge">
<title>module.simple&#45;composer&#45;environment.data.google_project.project&#45;&gt;module.activate_google_apis.google_project_service.project_services</title>
<path fill="none" stroke="black" d="M966.79,-348.76C923.9,-353.74 872.96,-359.66 825.6,-365.16"/>
<polygon fill="black" stroke="black" points="825.09,-361.69 815.56,-366.32 825.89,-368.65 825.09,-361.69"/>
</g>
<!-- module.simple&#45;composer&#45;environment.google_composer_environment.composer_env -->
<g id="node19" class="node">
<title>module.simple&#45;composer&#45;environment.google_composer_environment.composer_env</title>
<polygon fill="none" stroke="black" points="2081,-355 1743,-355 1743,-319 2081,-319 2081,-355"/>
<text text-anchor="middle" x="1912" y="-333.3" font-family="sans-serif" font-size="14.00">google_composer_environment.composer_env</text>
</g>
<!-- module.simple&#45;composer&#45;environment.google_composer_environment.composer_env&#45;&gt;module.service_accounts.google_service_account.service_accounts -->
<g id="edge20" class="edge">
<title>module.simple&#45;composer&#45;environment.google_composer_environment.composer_env&#45;&gt;module.service_accounts.google_service_account.service_accounts</title>
<path fill="none" stroke="black" d="M1781.88,-355.03C1757.06,-358.23 1731.24,-361.37 1707,-364 1507.46,-385.62 1451.64,-353.02 1257,-402 1204.81,-415.13 1148.62,-441.26 1111.61,-460.3"/>
<polygon fill="black" stroke="black" points="1109.88,-457.25 1102.63,-464.97 1113.11,-463.46 1109.88,-457.25"/>
</g>
<!-- module.simple&#45;composer&#45;environment.google_project_iam_member.composer_agent_service_account -->
<g id="node20" class="node">
<title>module.simple&#45;composer&#45;environment.google_project_iam_member.composer_agent_service_account</title>
<polygon fill="none" stroke="black" points="1707,-355 1257,-355 1257,-319 1707,-319 1707,-355"/>
<text text-anchor="middle" x="1482" y="-333.3" font-family="sans-serif" font-size="14.00">google_project_iam_member.composer_agent_service_account</text>
</g>
<!-- module.simple&#45;composer&#45;environment.google_composer_environment.composer_env&#45;&gt;module.simple&#45;composer&#45;environment.google_project_iam_member.composer_agent_service_account -->
<g id="edge21" class="edge">
<title>module.simple&#45;composer&#45;environment.google_composer_environment.composer_env&#45;&gt;module.simple&#45;composer&#45;environment.google_project_iam_member.composer_agent_service_account</title>
<path fill="none" stroke="black" d="M1742.76,-337C1734.35,-337 1725.84,-337 1717.29,-337"/>
<polygon fill="black" stroke="black" points="1717.23,-333.5 1707.23,-337 1717.23,-340.5 1717.23,-333.5"/>
</g>
<!-- module.simple&#45;composer&#45;environment.google_project_iam_member.composer_agent_service_account&#45;&gt;module.simple&#45;composer&#45;environment.data.google_project.project -->
<g id="edge22" class="edge">
<title>module.simple&#45;composer&#45;environment.google_project_iam_member.composer_agent_service_account&#45;&gt;module.simple&#45;composer&#45;environment.data.google_project.project</title>
<path fill="none" stroke="black" d="M1256.86,-337C1230.84,-337 1205.23,-337 1181.7,-337"/>
<polygon fill="black" stroke="black" points="1181.4,-333.5 1171.4,-337 1181.4,-340.5 1181.4,-333.5"/>
</g>
<!-- module.vpc.module.firewall_rules.google_compute_firewall.rules -->
<g id="node21" class="node">
<title>module.vpc.module.firewall_rules.google_compute_firewall.rules</title>
<polygon fill="none" stroke="black" points="1595,-189 1369,-189 1369,-153 1595,-153 1595,-189"/>
<text text-anchor="middle" x="1482" y="-167.3" font-family="sans-serif" font-size="14.00">google_compute_firewall.rules</text>
</g>
<!-- module.vpc.module.vpc.google_compute_network.network -->
<g id="node25" class="node">
<title>module.vpc.module.vpc.google_compute_network.network</title>
<polygon fill="none" stroke="black" points="1196,-272 942,-272 942,-236 1196,-236 1196,-272"/>
<text text-anchor="middle" x="1069" y="-250.3" font-family="sans-serif" font-size="14.00">google_compute_network.network</text>
</g>
<!-- module.vpc.module.firewall_rules.google_compute_firewall.rules&#45;&gt;module.vpc.module.vpc.google_compute_network.network -->
<g id="edge23" class="edge">
<title>module.vpc.module.firewall_rules.google_compute_firewall.rules&#45;&gt;module.vpc.module.vpc.google_compute_network.network</title>
<path fill="none" stroke="black" d="M1391.82,-189.01C1326.22,-202.26 1237.05,-220.26 1169.21,-233.96"/>
<polygon fill="black" stroke="black" points="1168.47,-230.54 1159.36,-235.95 1169.86,-237.41 1168.47,-230.54"/>
</g>
<!-- module.vpc.module.firewall_rules.google_compute_firewall.rules_ingress_egress -->
<g id="node22" class="node">
<title>module.vpc.module.firewall_rules.google_compute_firewall.rules_ingress_egress</title>
<polygon fill="none" stroke="black" points="1649.5,-135 1314.5,-135 1314.5,-99 1649.5,-99 1649.5,-135"/>
<text text-anchor="middle" x="1482" y="-113.3" font-family="sans-serif" font-size="14.00">google_compute_firewall.rules_ingress_egress</text>
</g>
<!-- module.vpc.module.firewall_rules.google_compute_firewall.rules_ingress_egress&#45;&gt;module.vpc.module.vpc.google_compute_network.network -->
<g id="edge24" class="edge">
<title>module.vpc.module.firewall_rules.google_compute_firewall.rules_ingress_egress&#45;&gt;module.vpc.module.vpc.google_compute_network.network</title>
<path fill="none" stroke="black" d="M1314.44,-129.3C1294.81,-133.03 1275.28,-137.82 1257,-144 1197.87,-163.98 1136.93,-204.19 1101.31,-230.06"/>
<polygon fill="black" stroke="black" points="1099.23,-227.25 1093.24,-235.99 1103.37,-232.89 1099.23,-227.25"/>
</g>
<!-- module.vpc.module.routes.google_compute_route.route -->
<g id="node23" class="node">
<title>module.vpc.module.routes.google_compute_route.route</title>
<polygon fill="none" stroke="black" points="2019,-52 1805,-52 1805,-16 2019,-16 2019,-52"/>
<text text-anchor="middle" x="1912" y="-30.3" font-family="sans-serif" font-size="14.00">google_compute_route.route</text>
</g>
<!-- module.vpc.module.subnets.google_compute_subnetwork.subnetwork -->
<g id="node24" class="node">
<title>module.vpc.module.subnets.google_compute_subnetwork.subnetwork</title>
<polygon fill="none" stroke="black" points="1634.5,-52 1329.5,-52 1329.5,-16 1634.5,-16 1634.5,-52"/>
<text text-anchor="middle" x="1482" y="-30.3" font-family="sans-serif" font-size="14.00">google_compute_subnetwork.subnetwork</text>
</g>
<!-- module.vpc.module.routes.google_compute_route.route&#45;&gt;module.vpc.module.subnets.google_compute_subnetwork.subnetwork -->
<g id="edge25" class="edge">
<title>module.vpc.module.routes.google_compute_route.route&#45;&gt;module.vpc.module.subnets.google_compute_subnetwork.subnetwork</title>
<path fill="none" stroke="black" d="M1804.93,-34C1756.67,-34 1698.49,-34 1644.94,-34"/>
<polygon fill="black" stroke="black" points="1644.65,-30.5 1634.65,-34 1644.65,-37.5 1644.65,-30.5"/>
</g>
<!-- module.vpc.module.subnets.google_compute_subnetwork.subnetwork&#45;&gt;module.vpc.module.vpc.google_compute_network.network -->
<g id="edge26" class="edge">
<title>module.vpc.module.subnets.google_compute_subnetwork.subnetwork&#45;&gt;module.vpc.module.vpc.google_compute_network.network</title>
<path fill="none" stroke="black" d="M1356.17,-52.05C1322.75,-59.91 1287.47,-71.11 1257,-87 1187.57,-123.2 1123.38,-190.99 1091.35,-228.1"/>
<polygon fill="black" stroke="black" points="1088.46,-226.08 1084.64,-235.96 1093.79,-230.62 1088.46,-226.08"/>
</g>
<!-- module.vpc.module.vpc.google_compute_network.network&#45;&gt;module.activate_google_apis.google_project_iam_member.project_service_identity_roles -->
<g id="edge27" class="edge">
<title>module.vpc.module.vpc.google_compute_network.network&#45;&gt;module.activate_google_apis.google_project_iam_member.project_service_identity_roles</title>
<path fill="none" stroke="black" d="M961.89,-272.06C941.96,-279.87 923.01,-291.04 909,-307 878.24,-342.05 923.08,-378.17 889,-410 888.02,-410.91 887.04,-411.8 886.03,-412.67"/>
<polygon fill="black" stroke="black" points="883.74,-410.02 878.09,-418.98 888.1,-415.5 883.74,-410.02"/>
</g>
<!-- module.vpc.module.vpc.google_compute_network.network&#45;&gt;module.activate_google_apis.google_project_service.project_services -->
<g id="edge28" class="edge">
<title>module.vpc.module.vpc.google_compute_network.network&#45;&gt;module.activate_google_apis.google_project_service.project_services</title>
<path fill="none" stroke="black" d="M1012.52,-272.07C940.16,-295.65 813.76,-336.82 736.99,-361.83"/>
<polygon fill="black" stroke="black" points="735.85,-358.52 727.42,-364.95 738.01,-365.18 735.85,-358.52"/>
</g>
<!-- module.vpc.module.vpc.google_compute_shared_vpc_host_project.shared_vpc_host -->
<g id="node26" class="node">
<title>module.vpc.module.vpc.google_compute_shared_vpc_host_project.shared_vpc_host</title>
<polygon fill="none" stroke="black" points="1695.5,-272 1268.5,-272 1268.5,-236 1695.5,-236 1695.5,-272"/>
<text text-anchor="middle" x="1482" y="-250.3" font-family="sans-serif" font-size="14.00">google_compute_shared_vpc_host_project.shared_vpc_host</text>
</g>
<!-- module.vpc.module.vpc.google_compute_shared_vpc_host_project.shared_vpc_host&#45;&gt;module.vpc.module.vpc.google_compute_network.network -->
<g id="edge29" class="edge">
<title>module.vpc.module.vpc.google_compute_shared_vpc_host_project.shared_vpc_host&#45;&gt;module.vpc.module.vpc.google_compute_network.network</title>
<path fill="none" stroke="black" d="M1268.28,-254C1247.16,-254 1226.15,-254 1206.14,-254"/>
<polygon fill="black" stroke="black" points="1206.08,-250.5 1196.08,-254 1206.08,-257.5 1206.08,-250.5"/>
</g>
</g>
</svg>
